<mxfile host="Electron" modified="2023-08-16T22:33:12.413Z" agent="Mozilla/5.0 (Windows NT 10.0; Win64; x64) AppleWebKit/537.36 (KHTML, like Gecko) draw.io/21.6.8 Chrome/114.0.5735.289 Electron/25.5.0 Safari/537.36" etag="rTsfkdNYljthcdcfxy9k" version="21.6.8" type="device" pages="5">
  <diagram id="RhSl5BYkCWO1H26zg4_b" name="Hardware Sketch">
    <mxGraphModel dx="1544" dy="956" grid="1" gridSize="10" guides="1" tooltips="1" connect="1" arrows="1" fold="1" page="1" pageScale="1" pageWidth="1100" pageHeight="850" math="0" shadow="0">
      <root>
        <mxCell id="0" />
        <mxCell id="1" parent="0" />
        <mxCell id="mlnEMk5v6XUhwnT-XgCQ-1" value="Power Management Controller" style="rounded=1;whiteSpace=wrap;html=1;" vertex="1" parent="1">
          <mxGeometry x="480" y="260" width="120" height="60" as="geometry" />
        </mxCell>
        <mxCell id="mlnEMk5v6XUhwnT-XgCQ-2" value="Microcontroller" style="rounded=1;whiteSpace=wrap;html=1;" vertex="1" parent="1">
          <mxGeometry x="480" y="395" width="120" height="60" as="geometry" />
        </mxCell>
        <mxCell id="mlnEMk5v6XUhwnT-XgCQ-3" value="LED Controller" style="rounded=1;whiteSpace=wrap;html=1;" vertex="1" parent="1">
          <mxGeometry x="760" y="395" width="120" height="60" as="geometry" />
        </mxCell>
        <mxCell id="mlnEMk5v6XUhwnT-XgCQ-4" value="System" style="rounded=1;whiteSpace=wrap;html=1;" vertex="1" parent="1">
          <mxGeometry x="200" y="395" width="120" height="60" as="geometry" />
        </mxCell>
        <mxCell id="-8tw7V5T3yUHRr_MaZ5N-1" value="General Purpose Input/Output" style="rounded=1;whiteSpace=wrap;html=1;" vertex="1" parent="1">
          <mxGeometry x="760" y="260" width="120" height="60" as="geometry" />
        </mxCell>
        <mxCell id="-8tw7V5T3yUHRr_MaZ5N-2" value="Nutrient Control System" style="rounded=1;whiteSpace=wrap;html=1;" vertex="1" parent="1">
          <mxGeometry x="760" y="520" width="120" height="60" as="geometry" />
        </mxCell>
        <mxCell id="zSljiTtHZGkkeHcPX1qU-1" value="Sensor" style="rounded=1;whiteSpace=wrap;html=1;" vertex="1" parent="1">
          <mxGeometry x="200" y="520" width="120" height="60" as="geometry" />
        </mxCell>
      </root>
    </mxGraphModel>
  </diagram>
  <diagram id="iHNZMsCqCjlTGF7xu6c1" name="Board Layout">
    <mxGraphModel dx="1544" dy="956" grid="1" gridSize="10" guides="1" tooltips="1" connect="1" arrows="1" fold="1" page="1" pageScale="1" pageWidth="1100" pageHeight="850" math="0" shadow="0">
      <root>
        <mxCell id="0" />
        <mxCell id="1" parent="0" />
        <mxCell id="irSMn220mWJREhbJE6fb-1" value="Power" style="swimlane;horizontal=0;whiteSpace=wrap;html=1;direction=west;" parent="1" vertex="1">
          <mxGeometry x="40" y="40" width="140" height="160" as="geometry" />
        </mxCell>
        <mxCell id="irSMn220mWJREhbJE6fb-2" value="System" style="swimlane;horizontal=0;whiteSpace=wrap;html=1;direction=west;" parent="1" vertex="1">
          <mxGeometry x="40" y="240" width="140" height="170" as="geometry" />
        </mxCell>
        <mxCell id="irSMn220mWJREhbJE6fb-4" value="GPIO - IO" style="swimlane;horizontal=0;whiteSpace=wrap;html=1;direction=east;" parent="1" vertex="1">
          <mxGeometry x="940" y="390" width="140" height="170" as="geometry" />
        </mxCell>
        <mxCell id="irSMn220mWJREhbJE6fb-5" value="GPIO - Comm" style="swimlane;horizontal=0;whiteSpace=wrap;html=1;direction=east;" parent="1" vertex="1">
          <mxGeometry x="940" y="190" width="140" height="170" as="geometry" />
        </mxCell>
        <mxCell id="irSMn220mWJREhbJE6fb-6" value="Sensors" style="swimlane;horizontal=0;whiteSpace=wrap;html=1;direction=west;" parent="1" vertex="1">
          <mxGeometry x="40" y="440" width="140" height="170" as="geometry" />
        </mxCell>
        <mxCell id="irSMn220mWJREhbJE6fb-9" value="Grow Lights" style="swimlane;whiteSpace=wrap;html=1;" parent="1" vertex="1">
          <mxGeometry x="360" y="700" width="440" height="140" as="geometry" />
        </mxCell>
        <mxCell id="a-74LHthYuNclVVVjiZe-1" value="Nutrient Control System" style="swimlane;whiteSpace=wrap;html=1;direction=west;" parent="1" vertex="1">
          <mxGeometry x="330" y="10" width="440" height="140" as="geometry" />
        </mxCell>
      </root>
    </mxGraphModel>
  </diagram>
  <diagram id="Hce0XGRWO7IJKibqu1cx" name="Power Management">
    <mxGraphModel dx="1816" dy="1125" grid="1" gridSize="10" guides="1" tooltips="1" connect="1" arrows="1" fold="1" page="1" pageScale="1" pageWidth="1100" pageHeight="850" math="0" shadow="0">
      <root>
        <mxCell id="P2Cyk1PLWHSQXZDMdPbn-0" />
        <mxCell id="P2Cyk1PLWHSQXZDMdPbn-1" parent="P2Cyk1PLWHSQXZDMdPbn-0" />
        <mxCell id="oujagZjz_LBLydkSTlGg-16" style="edgeStyle=orthogonalEdgeStyle;rounded=0;orthogonalLoop=1;jettySize=auto;html=1;exitX=0.5;exitY=1;exitDx=0;exitDy=0;strokeColor=#CCCC00;strokeWidth=2;entryX=0;entryY=0.5;entryDx=0;entryDy=0;entryPerimeter=0;endArrow=none;endFill=0;" edge="1" parent="P2Cyk1PLWHSQXZDMdPbn-1" source="P2Cyk1PLWHSQXZDMdPbn-18" target="oujagZjz_LBLydkSTlGg-48">
          <mxGeometry relative="1" as="geometry">
            <mxPoint x="250" y="380" as="targetPoint" />
          </mxGeometry>
        </mxCell>
        <mxCell id="oujagZjz_LBLydkSTlGg-17" value="AccPwr1" style="edgeLabel;html=1;align=center;verticalAlign=bottom;resizable=0;points=[];horizontal=0;" vertex="1" connectable="0" parent="oujagZjz_LBLydkSTlGg-16">
          <mxGeometry x="-0.1921" relative="1" as="geometry">
            <mxPoint as="offset" />
          </mxGeometry>
        </mxCell>
        <mxCell id="P2Cyk1PLWHSQXZDMdPbn-18" value="Voltage Regulator (+3.3V)" style="rounded=0;whiteSpace=wrap;html=1;" parent="P2Cyk1PLWHSQXZDMdPbn-1" vertex="1">
          <mxGeometry x="154" y="240" width="120" height="60" as="geometry" />
        </mxCell>
        <mxCell id="oujagZjz_LBLydkSTlGg-20" style="edgeStyle=orthogonalEdgeStyle;rounded=0;orthogonalLoop=1;jettySize=auto;html=1;exitX=0.5;exitY=1;exitDx=0;exitDy=0;strokeWidth=2;strokeColor=#FF8000;entryX=0;entryY=0.5;entryDx=0;entryDy=0;entryPerimeter=0;endArrow=none;endFill=0;" edge="1" parent="P2Cyk1PLWHSQXZDMdPbn-1" source="P2Cyk1PLWHSQXZDMdPbn-19" target="oujagZjz_LBLydkSTlGg-51">
          <mxGeometry relative="1" as="geometry">
            <mxPoint x="70" y="360" as="targetPoint" />
          </mxGeometry>
        </mxCell>
        <mxCell id="oujagZjz_LBLydkSTlGg-52" value="CtrlPwr" style="edgeLabel;html=1;align=center;verticalAlign=bottom;resizable=0;points=[];horizontal=0;" vertex="1" connectable="0" parent="oujagZjz_LBLydkSTlGg-20">
          <mxGeometry x="-0.1524" y="-2" relative="1" as="geometry">
            <mxPoint x="1" y="5" as="offset" />
          </mxGeometry>
        </mxCell>
        <mxCell id="P2Cyk1PLWHSQXZDMdPbn-19" value="Voltage Regulator (+9V)" style="rounded=0;whiteSpace=wrap;html=1;" parent="P2Cyk1PLWHSQXZDMdPbn-1" vertex="1">
          <mxGeometry x="20" y="240" width="120" height="60" as="geometry" />
        </mxCell>
        <mxCell id="V-Hg28DCed1BqYQspj9l-3" style="edgeStyle=orthogonalEdgeStyle;rounded=0;orthogonalLoop=1;jettySize=auto;html=1;exitX=0.5;exitY=1;exitDx=0;exitDy=0;entryX=0;entryY=0.5;entryDx=0;entryDy=0;entryPerimeter=0;strokeWidth=2;endArrow=none;endFill=0;strokeColor=#FF0000;" parent="P2Cyk1PLWHSQXZDMdPbn-1" source="P2Cyk1PLWHSQXZDMdPbn-21" target="L0WDCV6jpyQWDN5EfZdZ-4" edge="1">
          <mxGeometry relative="1" as="geometry" />
        </mxCell>
        <mxCell id="oujagZjz_LBLydkSTlGg-45" value="MainPwr3" style="edgeLabel;html=1;align=center;verticalAlign=bottom;resizable=0;points=[];horizontal=0;" vertex="1" connectable="0" parent="V-Hg28DCed1BqYQspj9l-3">
          <mxGeometry x="-0.3283" y="-2" relative="1" as="geometry">
            <mxPoint x="2" y="10" as="offset" />
          </mxGeometry>
        </mxCell>
        <mxCell id="P2Cyk1PLWHSQXZDMdPbn-21" value="High Side Driver&lt;br&gt;(12-24V)" style="rounded=0;whiteSpace=wrap;html=1;" parent="P2Cyk1PLWHSQXZDMdPbn-1" vertex="1">
          <mxGeometry x="826" y="240" width="120" height="60" as="geometry" />
        </mxCell>
        <mxCell id="oujagZjz_LBLydkSTlGg-3" style="edgeStyle=orthogonalEdgeStyle;rounded=0;orthogonalLoop=1;jettySize=auto;html=1;exitX=0.5;exitY=1;exitDx=0;exitDy=0;strokeColor=#CCCC00;strokeWidth=2;entryX=0;entryY=0.5;entryDx=0;entryDy=0;entryPerimeter=0;endArrow=none;endFill=0;" edge="1" parent="P2Cyk1PLWHSQXZDMdPbn-1" source="P2Cyk1PLWHSQXZDMdPbn-23" target="oujagZjz_LBLydkSTlGg-50">
          <mxGeometry relative="1" as="geometry">
            <mxPoint x="510" y="360" as="targetPoint" />
          </mxGeometry>
        </mxCell>
        <mxCell id="oujagZjz_LBLydkSTlGg-4" value="AccPwr3" style="edgeLabel;html=1;align=center;verticalAlign=bottom;resizable=0;points=[];horizontal=0;" vertex="1" connectable="0" parent="oujagZjz_LBLydkSTlGg-3">
          <mxGeometry x="-0.7302" y="-1" relative="1" as="geometry">
            <mxPoint x="1" y="22" as="offset" />
          </mxGeometry>
        </mxCell>
        <mxCell id="P2Cyk1PLWHSQXZDMdPbn-23" value="Voltage Regulator (+3.3V)" style="rounded=0;whiteSpace=wrap;html=1;" parent="P2Cyk1PLWHSQXZDMdPbn-1" vertex="1">
          <mxGeometry x="423" y="240" width="120" height="60" as="geometry" />
        </mxCell>
        <mxCell id="V-Hg28DCed1BqYQspj9l-1" style="edgeStyle=orthogonalEdgeStyle;rounded=0;orthogonalLoop=1;jettySize=auto;html=1;exitX=0.5;exitY=1;exitDx=0;exitDy=0;entryX=0;entryY=0.5;entryDx=0;entryDy=0;entryPerimeter=0;endArrow=none;endFill=0;strokeWidth=2;strokeColor=#FF0000;" parent="P2Cyk1PLWHSQXZDMdPbn-1" source="P2Cyk1PLWHSQXZDMdPbn-24" target="L0WDCV6jpyQWDN5EfZdZ-1" edge="1">
          <mxGeometry relative="1" as="geometry" />
        </mxCell>
        <mxCell id="oujagZjz_LBLydkSTlGg-43" value="MainPwr1" style="edgeLabel;html=1;align=center;verticalAlign=bottom;resizable=0;points=[];horizontal=0;" vertex="1" connectable="0" parent="V-Hg28DCed1BqYQspj9l-1">
          <mxGeometry x="-0.4783" y="2" relative="1" as="geometry">
            <mxPoint x="-2" y="14" as="offset" />
          </mxGeometry>
        </mxCell>
        <mxCell id="P2Cyk1PLWHSQXZDMdPbn-24" value="High Side Driver&lt;br&gt;(12-24V)" style="rounded=0;whiteSpace=wrap;html=1;" parent="P2Cyk1PLWHSQXZDMdPbn-1" vertex="1">
          <mxGeometry x="557" y="240" width="120" height="60" as="geometry" />
        </mxCell>
        <mxCell id="oujagZjz_LBLydkSTlGg-24" style="edgeStyle=orthogonalEdgeStyle;rounded=0;orthogonalLoop=1;jettySize=auto;html=1;exitX=0.5;exitY=1;exitDx=0;exitDy=0;strokeWidth=2;endArrow=none;endFill=0;strokeColor=#FF0000;" edge="1" parent="P2Cyk1PLWHSQXZDMdPbn-1" source="onMDiKVqD9KOsILOjHPy-1" target="P2Cyk1PLWHSQXZDMdPbn-23">
          <mxGeometry relative="1" as="geometry">
            <Array as="points">
              <mxPoint x="550" y="200" />
              <mxPoint x="483" y="200" />
            </Array>
          </mxGeometry>
        </mxCell>
        <mxCell id="oujagZjz_LBLydkSTlGg-25" style="edgeStyle=orthogonalEdgeStyle;rounded=0;orthogonalLoop=1;jettySize=auto;html=1;exitX=0.5;exitY=1;exitDx=0;exitDy=0;entryX=0.5;entryY=0;entryDx=0;entryDy=0;strokeWidth=2;endArrow=none;endFill=0;strokeColor=#FF0000;" edge="1" parent="P2Cyk1PLWHSQXZDMdPbn-1" source="onMDiKVqD9KOsILOjHPy-1" target="P2Cyk1PLWHSQXZDMdPbn-24">
          <mxGeometry relative="1" as="geometry">
            <Array as="points">
              <mxPoint x="550" y="200" />
              <mxPoint x="617" y="200" />
            </Array>
          </mxGeometry>
        </mxCell>
        <mxCell id="oujagZjz_LBLydkSTlGg-26" style="edgeStyle=orthogonalEdgeStyle;rounded=0;orthogonalLoop=1;jettySize=auto;html=1;exitX=0.5;exitY=1;exitDx=0;exitDy=0;entryX=0.5;entryY=0;entryDx=0;entryDy=0;strokeWidth=2;endArrow=none;endFill=0;strokeColor=#FF0000;" edge="1" parent="P2Cyk1PLWHSQXZDMdPbn-1" source="onMDiKVqD9KOsILOjHPy-1" target="L0WDCV6jpyQWDN5EfZdZ-13">
          <mxGeometry relative="1" as="geometry">
            <Array as="points">
              <mxPoint x="550" y="200" />
              <mxPoint x="751" y="200" />
            </Array>
          </mxGeometry>
        </mxCell>
        <mxCell id="oujagZjz_LBLydkSTlGg-27" style="edgeStyle=orthogonalEdgeStyle;rounded=0;orthogonalLoop=1;jettySize=auto;html=1;exitX=0.5;exitY=1;exitDx=0;exitDy=0;entryX=0.5;entryY=0;entryDx=0;entryDy=0;strokeWidth=2;endArrow=none;endFill=0;strokeColor=#FF0000;" edge="1" parent="P2Cyk1PLWHSQXZDMdPbn-1" source="onMDiKVqD9KOsILOjHPy-1" target="P2Cyk1PLWHSQXZDMdPbn-21">
          <mxGeometry relative="1" as="geometry">
            <Array as="points">
              <mxPoint x="550" y="200" />
              <mxPoint x="886" y="200" />
            </Array>
          </mxGeometry>
        </mxCell>
        <mxCell id="oujagZjz_LBLydkSTlGg-28" style="edgeStyle=orthogonalEdgeStyle;rounded=0;orthogonalLoop=1;jettySize=auto;html=1;exitX=0.5;exitY=1;exitDx=0;exitDy=0;entryX=0.5;entryY=0;entryDx=0;entryDy=0;strokeWidth=2;endArrow=none;endFill=0;strokeColor=#FF0000;" edge="1" parent="P2Cyk1PLWHSQXZDMdPbn-1" source="onMDiKVqD9KOsILOjHPy-1" target="onMDiKVqD9KOsILOjHPy-19">
          <mxGeometry relative="1" as="geometry">
            <Array as="points">
              <mxPoint x="550" y="200" />
              <mxPoint x="1020" y="200" />
            </Array>
          </mxGeometry>
        </mxCell>
        <mxCell id="oujagZjz_LBLydkSTlGg-29" style="edgeStyle=orthogonalEdgeStyle;rounded=0;orthogonalLoop=1;jettySize=auto;html=1;exitX=0.5;exitY=1;exitDx=0;exitDy=0;entryX=0.5;entryY=0;entryDx=0;entryDy=0;strokeWidth=2;endArrow=none;endFill=0;strokeColor=#FF0000;" edge="1" parent="P2Cyk1PLWHSQXZDMdPbn-1" source="onMDiKVqD9KOsILOjHPy-1" target="UNB3FlEx-pYs8e1di6xo-0">
          <mxGeometry relative="1" as="geometry">
            <Array as="points">
              <mxPoint x="550" y="200" />
              <mxPoint x="349" y="200" />
            </Array>
          </mxGeometry>
        </mxCell>
        <mxCell id="oujagZjz_LBLydkSTlGg-30" style="edgeStyle=orthogonalEdgeStyle;rounded=0;orthogonalLoop=1;jettySize=auto;html=1;exitX=0.5;exitY=1;exitDx=0;exitDy=0;entryX=0.5;entryY=0;entryDx=0;entryDy=0;strokeWidth=2;endArrow=none;endFill=0;strokeColor=#FF0000;" edge="1" parent="P2Cyk1PLWHSQXZDMdPbn-1" source="onMDiKVqD9KOsILOjHPy-1" target="P2Cyk1PLWHSQXZDMdPbn-18">
          <mxGeometry relative="1" as="geometry">
            <Array as="points">
              <mxPoint x="550" y="200" />
              <mxPoint x="214" y="200" />
            </Array>
          </mxGeometry>
        </mxCell>
        <mxCell id="oujagZjz_LBLydkSTlGg-31" style="edgeStyle=orthogonalEdgeStyle;rounded=0;orthogonalLoop=1;jettySize=auto;html=1;exitX=0.5;exitY=1;exitDx=0;exitDy=0;entryX=0.5;entryY=0;entryDx=0;entryDy=0;strokeWidth=2;endArrow=none;endFill=0;strokeColor=#FF0000;" edge="1" parent="P2Cyk1PLWHSQXZDMdPbn-1" source="onMDiKVqD9KOsILOjHPy-1" target="P2Cyk1PLWHSQXZDMdPbn-19">
          <mxGeometry relative="1" as="geometry">
            <Array as="points">
              <mxPoint x="550" y="200" />
              <mxPoint x="80" y="200" />
            </Array>
          </mxGeometry>
        </mxCell>
        <mxCell id="onMDiKVqD9KOsILOjHPy-1" value="Input Voltage&lt;br&gt;(12 - 24VDC)" style="rounded=0;whiteSpace=wrap;html=1;" parent="P2Cyk1PLWHSQXZDMdPbn-1" vertex="1">
          <mxGeometry x="490" y="20" width="120" height="60" as="geometry" />
        </mxCell>
        <mxCell id="V-Hg28DCed1BqYQspj9l-4" style="edgeStyle=orthogonalEdgeStyle;rounded=0;orthogonalLoop=1;jettySize=auto;html=1;exitX=0.5;exitY=1;exitDx=0;exitDy=0;entryX=0;entryY=0.5;entryDx=0;entryDy=0;entryPerimeter=0;strokeWidth=2;endArrow=none;endFill=0;strokeColor=#FF0000;" parent="P2Cyk1PLWHSQXZDMdPbn-1" source="onMDiKVqD9KOsILOjHPy-19" target="L0WDCV6jpyQWDN5EfZdZ-2" edge="1">
          <mxGeometry relative="1" as="geometry" />
        </mxCell>
        <mxCell id="oujagZjz_LBLydkSTlGg-46" value="MainPwr4" style="edgeLabel;html=1;align=center;verticalAlign=bottom;resizable=0;points=[];horizontal=0;" vertex="1" connectable="0" parent="V-Hg28DCed1BqYQspj9l-4">
          <mxGeometry x="-0.5783" y="-2" relative="1" as="geometry">
            <mxPoint x="2" y="17" as="offset" />
          </mxGeometry>
        </mxCell>
        <mxCell id="onMDiKVqD9KOsILOjHPy-19" value="High Side Driver&lt;br&gt;(12-24V)" style="rounded=0;whiteSpace=wrap;html=1;" parent="P2Cyk1PLWHSQXZDMdPbn-1" vertex="1">
          <mxGeometry x="960" y="240" width="120" height="60" as="geometry" />
        </mxCell>
        <mxCell id="oujagZjz_LBLydkSTlGg-9" style="edgeStyle=orthogonalEdgeStyle;rounded=0;orthogonalLoop=1;jettySize=auto;html=1;exitX=0.5;exitY=1;exitDx=0;exitDy=0;strokeColor=#CCCC00;strokeWidth=2;entryX=0;entryY=0.5;entryDx=0;entryDy=0;entryPerimeter=0;endArrow=none;endFill=0;" edge="1" parent="P2Cyk1PLWHSQXZDMdPbn-1" source="UNB3FlEx-pYs8e1di6xo-0" target="oujagZjz_LBLydkSTlGg-49">
          <mxGeometry relative="1" as="geometry">
            <mxPoint x="380" y="380" as="targetPoint" />
          </mxGeometry>
        </mxCell>
        <mxCell id="oujagZjz_LBLydkSTlGg-10" value="AccPwr2" style="edgeLabel;html=1;align=center;verticalAlign=bottom;resizable=0;points=[];horizontal=0;" vertex="1" connectable="0" parent="oujagZjz_LBLydkSTlGg-9">
          <mxGeometry x="-0.0847" relative="1" as="geometry">
            <mxPoint x="-1" as="offset" />
          </mxGeometry>
        </mxCell>
        <mxCell id="UNB3FlEx-pYs8e1di6xo-0" value="Voltage Regulator (+3.3V)" style="rounded=0;whiteSpace=wrap;html=1;" parent="P2Cyk1PLWHSQXZDMdPbn-1" vertex="1">
          <mxGeometry x="289" y="240" width="120" height="60" as="geometry" />
        </mxCell>
        <mxCell id="oujagZjz_LBLydkSTlGg-2" style="edgeStyle=orthogonalEdgeStyle;rounded=0;orthogonalLoop=1;jettySize=auto;html=1;exitX=1;exitY=0.5;exitDx=0;exitDy=0;exitPerimeter=0;entryX=0;entryY=0.5;entryDx=0;entryDy=0;entryPerimeter=0;strokeWidth=2;endArrow=none;endFill=0;strokeColor=#FF0000;" edge="1" parent="P2Cyk1PLWHSQXZDMdPbn-1" source="L0WDCV6jpyQWDN5EfZdZ-1" target="b99abyGe5AANCG3WY1Ry-0">
          <mxGeometry relative="1" as="geometry" />
        </mxCell>
        <mxCell id="L0WDCV6jpyQWDN5EfZdZ-1" value="10A" style="pointerEvents=1;verticalLabelPosition=middle;shadow=0;dashed=0;align=center;html=1;verticalAlign=middle;shape=mxgraph.electrical.miscellaneous.fuse_4;direction=south;aspect=fixed;strokeWidth=2;labelPosition=left;horizontal=0;fontStyle=1;strokeColor=#000000;" parent="P2Cyk1PLWHSQXZDMdPbn-1" vertex="1">
          <mxGeometry x="606.6" y="360" width="20.8" height="65" as="geometry" />
        </mxCell>
        <mxCell id="oujagZjz_LBLydkSTlGg-0" style="edgeStyle=orthogonalEdgeStyle;rounded=0;orthogonalLoop=1;jettySize=auto;html=1;exitX=1;exitY=0.5;exitDx=0;exitDy=0;exitPerimeter=0;entryX=0;entryY=0.5;entryDx=0;entryDy=0;entryPerimeter=0;strokeWidth=2;endArrow=none;endFill=0;strokeColor=#FF0000;" edge="1" parent="P2Cyk1PLWHSQXZDMdPbn-1" source="L0WDCV6jpyQWDN5EfZdZ-2" target="b99abyGe5AANCG3WY1Ry-2">
          <mxGeometry relative="1" as="geometry" />
        </mxCell>
        <mxCell id="L0WDCV6jpyQWDN5EfZdZ-2" value="10A" style="pointerEvents=1;verticalLabelPosition=middle;shadow=0;dashed=0;align=center;html=1;verticalAlign=middle;shape=mxgraph.electrical.miscellaneous.fuse_4;direction=south;aspect=fixed;strokeWidth=2;horizontal=0;labelPosition=left;fontStyle=1;strokeColor=#000000;" parent="P2Cyk1PLWHSQXZDMdPbn-1" vertex="1">
          <mxGeometry x="1009.5999999999999" y="360" width="20.8" height="65" as="geometry" />
        </mxCell>
        <mxCell id="V-Hg28DCed1BqYQspj9l-5" style="edgeStyle=orthogonalEdgeStyle;rounded=0;orthogonalLoop=1;jettySize=auto;html=1;exitX=1;exitY=0.5;exitDx=0;exitDy=0;exitPerimeter=0;entryX=0;entryY=0.5;entryDx=0;entryDy=0;entryPerimeter=0;strokeWidth=2;endArrow=none;endFill=0;strokeColor=#FF0000;" parent="P2Cyk1PLWHSQXZDMdPbn-1" source="L0WDCV6jpyQWDN5EfZdZ-4" target="b99abyGe5AANCG3WY1Ry-3" edge="1">
          <mxGeometry relative="1" as="geometry" />
        </mxCell>
        <mxCell id="L0WDCV6jpyQWDN5EfZdZ-4" value="10A" style="pointerEvents=1;verticalLabelPosition=middle;shadow=0;dashed=0;align=center;html=1;verticalAlign=middle;shape=mxgraph.electrical.miscellaneous.fuse_4;direction=south;aspect=fixed;strokeWidth=2;labelPosition=left;horizontal=0;fontStyle=1;strokeColor=#000000;" parent="P2Cyk1PLWHSQXZDMdPbn-1" vertex="1">
          <mxGeometry x="875.6" y="360" width="20.8" height="65" as="geometry" />
        </mxCell>
        <mxCell id="V-Hg28DCed1BqYQspj9l-2" style="edgeStyle=orthogonalEdgeStyle;rounded=0;orthogonalLoop=1;jettySize=auto;html=1;exitX=0.5;exitY=1;exitDx=0;exitDy=0;entryX=0;entryY=0.5;entryDx=0;entryDy=0;entryPerimeter=0;endArrow=none;endFill=0;strokeWidth=2;strokeColor=#FF0000;" parent="P2Cyk1PLWHSQXZDMdPbn-1" source="L0WDCV6jpyQWDN5EfZdZ-13" target="L0WDCV6jpyQWDN5EfZdZ-17" edge="1">
          <mxGeometry relative="1" as="geometry" />
        </mxCell>
        <mxCell id="oujagZjz_LBLydkSTlGg-44" value="MainPwr2" style="edgeLabel;html=1;align=center;verticalAlign=bottom;resizable=0;points=[];horizontal=0;" vertex="1" connectable="0" parent="V-Hg28DCed1BqYQspj9l-2">
          <mxGeometry x="-0.495" relative="1" as="geometry">
            <mxPoint y="15" as="offset" />
          </mxGeometry>
        </mxCell>
        <mxCell id="L0WDCV6jpyQWDN5EfZdZ-13" value="High Side Driver&lt;br&gt;(12-24V)" style="rounded=0;whiteSpace=wrap;html=1;" parent="P2Cyk1PLWHSQXZDMdPbn-1" vertex="1">
          <mxGeometry x="691" y="240" width="120" height="60" as="geometry" />
        </mxCell>
        <mxCell id="oujagZjz_LBLydkSTlGg-1" style="edgeStyle=orthogonalEdgeStyle;rounded=0;orthogonalLoop=1;jettySize=auto;html=1;exitX=1;exitY=0.5;exitDx=0;exitDy=0;exitPerimeter=0;entryX=0;entryY=0.5;entryDx=0;entryDy=0;entryPerimeter=0;strokeWidth=2;endArrow=none;endFill=0;strokeColor=#FF0000;" edge="1" parent="P2Cyk1PLWHSQXZDMdPbn-1" source="L0WDCV6jpyQWDN5EfZdZ-17" target="b99abyGe5AANCG3WY1Ry-1">
          <mxGeometry relative="1" as="geometry" />
        </mxCell>
        <mxCell id="L0WDCV6jpyQWDN5EfZdZ-17" value="10A" style="pointerEvents=1;verticalLabelPosition=middle;shadow=0;dashed=0;align=center;html=1;verticalAlign=middle;shape=mxgraph.electrical.miscellaneous.fuse_4;direction=south;aspect=fixed;strokeWidth=2;labelPosition=left;horizontal=0;fontStyle=1;strokeColor=#000000;" parent="P2Cyk1PLWHSQXZDMdPbn-1" vertex="1">
          <mxGeometry x="740.6" y="360" width="20.8" height="65" as="geometry" />
        </mxCell>
        <mxCell id="b99abyGe5AANCG3WY1Ry-0" value="Reservoir Pump" style="html=1;shadow=0;dashed=0;align=center;verticalAlign=middle;shape=mxgraph.arrows2.arrow;dy=0;dx=10;notch=0;strokeWidth=2;rotation=270;direction=west;" parent="P2Cyk1PLWHSQXZDMdPbn-1" vertex="1">
          <mxGeometry x="537" y="550" width="160" height="30" as="geometry" />
        </mxCell>
        <mxCell id="b99abyGe5AANCG3WY1Ry-1" value="Reservoir Heater" style="html=1;shadow=0;dashed=0;align=center;verticalAlign=middle;shape=mxgraph.arrows2.arrow;dy=0;dx=10;notch=0;strokeWidth=2;rotation=270;direction=west;" parent="P2Cyk1PLWHSQXZDMdPbn-1" vertex="1">
          <mxGeometry x="671" y="550" width="160" height="30" as="geometry" />
        </mxCell>
        <mxCell id="b99abyGe5AANCG3WY1Ry-2" value="NCS Pump" style="html=1;shadow=0;dashed=0;align=center;verticalAlign=middle;shape=mxgraph.arrows2.arrow;dy=0;dx=10;notch=0;strokeWidth=2;rotation=270;direction=west;" parent="P2Cyk1PLWHSQXZDMdPbn-1" vertex="1">
          <mxGeometry x="940" y="550" width="160" height="30" as="geometry" />
        </mxCell>
        <mxCell id="b99abyGe5AANCG3WY1Ry-3" value="Grow Lights" style="html=1;shadow=0;dashed=0;align=center;verticalAlign=middle;shape=mxgraph.arrows2.arrow;dy=0;dx=10;notch=0;strokeWidth=2;rotation=270;direction=west;" parent="P2Cyk1PLWHSQXZDMdPbn-1" vertex="1">
          <mxGeometry x="806" y="550" width="160" height="30" as="geometry" />
        </mxCell>
        <mxCell id="b99abyGe5AANCG3WY1Ry-4" value="Liquid Level Switch" style="html=1;shadow=0;dashed=0;align=center;verticalAlign=middle;shape=mxgraph.arrows2.arrow;dy=0;dx=10;notch=0;strokeWidth=2;rotation=270;direction=west;" parent="P2Cyk1PLWHSQXZDMdPbn-1" vertex="1">
          <mxGeometry x="304" y="550" width="160" height="30" as="geometry" />
        </mxCell>
        <mxCell id="b99abyGe5AANCG3WY1Ry-5" value="GPIO - IO" style="html=1;shadow=0;dashed=0;align=center;verticalAlign=middle;shape=mxgraph.arrows2.arrow;dy=0;dx=10;notch=0;strokeWidth=2;rotation=270;direction=west;" parent="P2Cyk1PLWHSQXZDMdPbn-1" vertex="1">
          <mxGeometry x="151" y="550" width="160" height="30" as="geometry" />
        </mxCell>
        <mxCell id="b99abyGe5AANCG3WY1Ry-7" value="Controller Power" style="html=1;shadow=0;dashed=0;align=center;verticalAlign=middle;shape=mxgraph.arrows2.arrow;dy=0;dx=10;notch=0;strokeWidth=2;direction=west;rotation=270;" parent="P2Cyk1PLWHSQXZDMdPbn-1" vertex="1">
          <mxGeometry y="550" width="160" height="30" as="geometry" />
        </mxCell>
        <mxCell id="V-Hg28DCed1BqYQspj9l-0" value="Peristaltic Pump" style="html=1;shadow=0;dashed=0;align=center;verticalAlign=middle;shape=mxgraph.arrows2.arrow;dy=0;dx=10;notch=0;strokeWidth=2;rotation=270;direction=west;" parent="P2Cyk1PLWHSQXZDMdPbn-1" vertex="1">
          <mxGeometry x="437" y="550" width="160" height="30" as="geometry" />
        </mxCell>
        <mxCell id="oujagZjz_LBLydkSTlGg-5" value="Liquid Level Switch" style="html=1;shadow=0;dashed=0;align=center;verticalAlign=middle;shape=mxgraph.arrows2.arrow;dy=0;dx=10;notch=0;strokeWidth=2;rotation=270;direction=west;" vertex="1" parent="P2Cyk1PLWHSQXZDMdPbn-1">
          <mxGeometry x="403" y="550" width="160" height="30" as="geometry" />
        </mxCell>
        <mxCell id="oujagZjz_LBLydkSTlGg-6" value="TWI Isolator" style="html=1;shadow=0;dashed=0;align=center;verticalAlign=middle;shape=mxgraph.arrows2.arrow;dy=0;dx=10;notch=0;strokeWidth=2;rotation=270;direction=west;" vertex="1" parent="P2Cyk1PLWHSQXZDMdPbn-1">
          <mxGeometry x="370" y="550" width="160" height="30" as="geometry" />
        </mxCell>
        <mxCell id="oujagZjz_LBLydkSTlGg-11" value="Temperature Sensor" style="html=1;shadow=0;dashed=0;align=center;verticalAlign=middle;shape=mxgraph.arrows2.arrow;dy=0;dx=10;notch=0;strokeWidth=2;rotation=270;direction=west;" vertex="1" parent="P2Cyk1PLWHSQXZDMdPbn-1">
          <mxGeometry x="269" y="550" width="160" height="30" as="geometry" />
        </mxCell>
        <mxCell id="oujagZjz_LBLydkSTlGg-12" value="Amb Environmental Sensor" style="html=1;shadow=0;dashed=0;align=center;verticalAlign=middle;shape=mxgraph.arrows2.arrow;dy=0;dx=10;notch=0;strokeWidth=2;rotation=270;direction=west;" vertex="1" parent="P2Cyk1PLWHSQXZDMdPbn-1">
          <mxGeometry x="234" y="550" width="160" height="30" as="geometry" />
        </mxCell>
        <mxCell id="oujagZjz_LBLydkSTlGg-18" value="GPIO - Comm" style="html=1;shadow=0;dashed=0;align=center;verticalAlign=middle;shape=mxgraph.arrows2.arrow;dy=0;dx=10;notch=0;strokeWidth=2;rotation=270;direction=west;" vertex="1" parent="P2Cyk1PLWHSQXZDMdPbn-1">
          <mxGeometry x="117" y="550" width="160" height="30" as="geometry" />
        </mxCell>
        <mxCell id="oujagZjz_LBLydkSTlGg-32" style="edgeStyle=orthogonalEdgeStyle;rounded=0;orthogonalLoop=1;jettySize=auto;html=1;exitX=1;exitY=0.5;exitDx=0;exitDy=0;exitPerimeter=0;entryX=0.25;entryY=0;entryDx=0;entryDy=0;strokeWidth=2;endArrow=classic;endFill=1;strokeColor=#0000FF;" edge="1" parent="P2Cyk1PLWHSQXZDMdPbn-1" source="oujagZjz_LBLydkSTlGg-21" target="P2Cyk1PLWHSQXZDMdPbn-19">
          <mxGeometry relative="1" as="geometry" />
        </mxCell>
        <mxCell id="oujagZjz_LBLydkSTlGg-21" value="Keyswitch" style="html=1;shadow=0;dashed=0;align=center;verticalAlign=middle;shape=mxgraph.arrows2.arrow;dy=0;dx=10;notch=0;strokeWidth=2;direction=west;rotation=270;" vertex="1" parent="P2Cyk1PLWHSQXZDMdPbn-1">
          <mxGeometry y="80" width="100" height="30" as="geometry" />
        </mxCell>
        <mxCell id="oujagZjz_LBLydkSTlGg-33" style="edgeStyle=orthogonalEdgeStyle;rounded=0;orthogonalLoop=1;jettySize=auto;html=1;exitX=1;exitY=0.5;exitDx=0;exitDy=0;exitPerimeter=0;entryX=0.25;entryY=0;entryDx=0;entryDy=0;strokeWidth=2;strokeColor=#0000FF;" edge="1" parent="P2Cyk1PLWHSQXZDMdPbn-1" source="oujagZjz_LBLydkSTlGg-22" target="P2Cyk1PLWHSQXZDMdPbn-18">
          <mxGeometry relative="1" as="geometry" />
        </mxCell>
        <mxCell id="oujagZjz_LBLydkSTlGg-34" style="edgeStyle=orthogonalEdgeStyle;rounded=0;orthogonalLoop=1;jettySize=auto;html=1;exitX=1;exitY=0.5;exitDx=0;exitDy=0;exitPerimeter=0;entryX=0.25;entryY=0;entryDx=0;entryDy=0;strokeWidth=2;strokeColor=#0000FF;" edge="1" parent="P2Cyk1PLWHSQXZDMdPbn-1" source="oujagZjz_LBLydkSTlGg-22" target="UNB3FlEx-pYs8e1di6xo-0">
          <mxGeometry relative="1" as="geometry">
            <Array as="points">
              <mxPoint x="184" y="160" />
              <mxPoint x="319" y="160" />
            </Array>
          </mxGeometry>
        </mxCell>
        <mxCell id="oujagZjz_LBLydkSTlGg-35" style="edgeStyle=orthogonalEdgeStyle;rounded=0;orthogonalLoop=1;jettySize=auto;html=1;exitX=1;exitY=0.5;exitDx=0;exitDy=0;exitPerimeter=0;entryX=0.25;entryY=0;entryDx=0;entryDy=0;strokeColor=#0000FF;strokeWidth=2;" edge="1" parent="P2Cyk1PLWHSQXZDMdPbn-1" source="oujagZjz_LBLydkSTlGg-22" target="P2Cyk1PLWHSQXZDMdPbn-23">
          <mxGeometry relative="1" as="geometry">
            <Array as="points">
              <mxPoint x="184" y="160" />
              <mxPoint x="453" y="160" />
            </Array>
          </mxGeometry>
        </mxCell>
        <mxCell id="oujagZjz_LBLydkSTlGg-22" value="AccPwrAct" style="html=1;shadow=0;dashed=0;align=center;verticalAlign=middle;shape=mxgraph.arrows2.arrow;dy=0;dx=10;notch=0;strokeWidth=2;direction=west;rotation=270;" vertex="1" parent="P2Cyk1PLWHSQXZDMdPbn-1">
          <mxGeometry x="134" y="80" width="100" height="30" as="geometry" />
        </mxCell>
        <mxCell id="oujagZjz_LBLydkSTlGg-36" style="edgeStyle=orthogonalEdgeStyle;rounded=0;orthogonalLoop=1;jettySize=auto;html=1;exitX=1;exitY=0.5;exitDx=0;exitDy=0;exitPerimeter=0;entryX=0.75;entryY=0;entryDx=0;entryDy=0;strokeColor=#0000FF;strokeWidth=2;" edge="1" parent="P2Cyk1PLWHSQXZDMdPbn-1" source="oujagZjz_LBLydkSTlGg-23" target="P2Cyk1PLWHSQXZDMdPbn-24">
          <mxGeometry relative="1" as="geometry" />
        </mxCell>
        <mxCell id="oujagZjz_LBLydkSTlGg-23" value="RsvrPmpAct" style="html=1;shadow=0;dashed=0;align=center;verticalAlign=middle;shape=mxgraph.arrows2.arrow;dy=0;dx=10;notch=0;strokeWidth=2;direction=west;rotation=270;" vertex="1" parent="P2Cyk1PLWHSQXZDMdPbn-1">
          <mxGeometry x="597" y="80" width="100" height="30" as="geometry" />
        </mxCell>
        <mxCell id="oujagZjz_LBLydkSTlGg-38" style="edgeStyle=orthogonalEdgeStyle;rounded=0;orthogonalLoop=1;jettySize=auto;html=1;exitX=1;exitY=0.5;exitDx=0;exitDy=0;exitPerimeter=0;entryX=0.75;entryY=0;entryDx=0;entryDy=0;strokeColor=#0000FF;strokeWidth=2;" edge="1" parent="P2Cyk1PLWHSQXZDMdPbn-1" source="oujagZjz_LBLydkSTlGg-37" target="L0WDCV6jpyQWDN5EfZdZ-13">
          <mxGeometry relative="1" as="geometry" />
        </mxCell>
        <mxCell id="oujagZjz_LBLydkSTlGg-37" value="RsvrHeaterAct" style="html=1;shadow=0;dashed=0;align=center;verticalAlign=middle;shape=mxgraph.arrows2.arrow;dy=0;dx=10;notch=0;strokeWidth=2;direction=west;rotation=270;" vertex="1" parent="P2Cyk1PLWHSQXZDMdPbn-1">
          <mxGeometry x="731" y="80" width="100" height="30" as="geometry" />
        </mxCell>
        <mxCell id="oujagZjz_LBLydkSTlGg-40" style="edgeStyle=orthogonalEdgeStyle;rounded=0;orthogonalLoop=1;jettySize=auto;html=1;exitX=1;exitY=0.5;exitDx=0;exitDy=0;exitPerimeter=0;entryX=0.75;entryY=0;entryDx=0;entryDy=0;strokeColor=#0000FF;strokeWidth=2;" edge="1" parent="P2Cyk1PLWHSQXZDMdPbn-1" source="oujagZjz_LBLydkSTlGg-39" target="P2Cyk1PLWHSQXZDMdPbn-21">
          <mxGeometry relative="1" as="geometry" />
        </mxCell>
        <mxCell id="oujagZjz_LBLydkSTlGg-39" value="GrowLightAct" style="html=1;shadow=0;dashed=0;align=center;verticalAlign=middle;shape=mxgraph.arrows2.arrow;dy=0;dx=10;notch=0;strokeWidth=2;direction=west;rotation=270;" vertex="1" parent="P2Cyk1PLWHSQXZDMdPbn-1">
          <mxGeometry x="866" y="80" width="100" height="30" as="geometry" />
        </mxCell>
        <mxCell id="oujagZjz_LBLydkSTlGg-42" style="edgeStyle=orthogonalEdgeStyle;rounded=0;orthogonalLoop=1;jettySize=auto;html=1;exitX=1;exitY=0.5;exitDx=0;exitDy=0;exitPerimeter=0;entryX=0.75;entryY=0;entryDx=0;entryDy=0;strokeColor=#0000FF;strokeWidth=2;" edge="1" parent="P2Cyk1PLWHSQXZDMdPbn-1" source="oujagZjz_LBLydkSTlGg-41" target="onMDiKVqD9KOsILOjHPy-19">
          <mxGeometry relative="1" as="geometry" />
        </mxCell>
        <mxCell id="oujagZjz_LBLydkSTlGg-41" value="NCSPmpAct" style="html=1;shadow=0;dashed=0;align=center;verticalAlign=middle;shape=mxgraph.arrows2.arrow;dy=0;dx=10;notch=0;strokeWidth=2;direction=west;rotation=270;" vertex="1" parent="P2Cyk1PLWHSQXZDMdPbn-1">
          <mxGeometry x="1000" y="80" width="100" height="30" as="geometry" />
        </mxCell>
        <mxCell id="oujagZjz_LBLydkSTlGg-61" style="edgeStyle=orthogonalEdgeStyle;rounded=0;orthogonalLoop=1;jettySize=auto;html=1;exitX=1;exitY=0.5;exitDx=0;exitDy=0;exitPerimeter=0;entryX=0;entryY=0.5;entryDx=0;entryDy=0;entryPerimeter=0;strokeColor=#CCCC00;strokeWidth=2;endArrow=none;endFill=0;" edge="1" parent="P2Cyk1PLWHSQXZDMdPbn-1" source="oujagZjz_LBLydkSTlGg-48" target="b99abyGe5AANCG3WY1Ry-5">
          <mxGeometry relative="1" as="geometry" />
        </mxCell>
        <mxCell id="oujagZjz_LBLydkSTlGg-62" style="edgeStyle=orthogonalEdgeStyle;rounded=0;orthogonalLoop=1;jettySize=auto;html=1;exitX=1;exitY=0.5;exitDx=0;exitDy=0;exitPerimeter=0;entryX=0;entryY=0.5;entryDx=0;entryDy=0;entryPerimeter=0;strokeColor=#CCCC00;strokeWidth=2;endArrow=none;endFill=0;" edge="1" parent="P2Cyk1PLWHSQXZDMdPbn-1" source="oujagZjz_LBLydkSTlGg-48" target="oujagZjz_LBLydkSTlGg-18">
          <mxGeometry relative="1" as="geometry" />
        </mxCell>
        <mxCell id="oujagZjz_LBLydkSTlGg-48" value="5A" style="pointerEvents=1;verticalLabelPosition=middle;shadow=0;dashed=0;align=center;html=1;verticalAlign=middle;shape=mxgraph.electrical.miscellaneous.fuse_4;direction=south;aspect=fixed;strokeWidth=2;labelPosition=left;horizontal=0;fontStyle=1;strokeColor=#000000;" vertex="1" parent="P2Cyk1PLWHSQXZDMdPbn-1">
          <mxGeometry x="203.60000000000005" y="360" width="20.8" height="65" as="geometry" />
        </mxCell>
        <mxCell id="oujagZjz_LBLydkSTlGg-58" style="edgeStyle=orthogonalEdgeStyle;rounded=0;orthogonalLoop=1;jettySize=auto;html=1;exitX=1;exitY=0.5;exitDx=0;exitDy=0;exitPerimeter=0;entryX=0;entryY=0.5;entryDx=0;entryDy=0;entryPerimeter=0;strokeColor=#CCCC00;strokeWidth=2;endArrow=none;endFill=0;" edge="1" parent="P2Cyk1PLWHSQXZDMdPbn-1" source="oujagZjz_LBLydkSTlGg-49" target="b99abyGe5AANCG3WY1Ry-4">
          <mxGeometry relative="1" as="geometry" />
        </mxCell>
        <mxCell id="oujagZjz_LBLydkSTlGg-59" style="edgeStyle=orthogonalEdgeStyle;rounded=0;orthogonalLoop=1;jettySize=auto;html=1;exitX=1;exitY=0.5;exitDx=0;exitDy=0;exitPerimeter=0;entryX=0;entryY=0.5;entryDx=0;entryDy=0;entryPerimeter=0;strokeColor=#CCCC00;strokeWidth=2;endArrow=none;endFill=0;" edge="1" parent="P2Cyk1PLWHSQXZDMdPbn-1" source="oujagZjz_LBLydkSTlGg-49" target="oujagZjz_LBLydkSTlGg-11">
          <mxGeometry relative="1" as="geometry" />
        </mxCell>
        <mxCell id="oujagZjz_LBLydkSTlGg-60" style="edgeStyle=orthogonalEdgeStyle;rounded=0;orthogonalLoop=1;jettySize=auto;html=1;exitX=1;exitY=0.5;exitDx=0;exitDy=0;exitPerimeter=0;entryX=0;entryY=0.5;entryDx=0;entryDy=0;entryPerimeter=0;strokeColor=#CCCC00;strokeWidth=2;endArrow=none;endFill=0;" edge="1" parent="P2Cyk1PLWHSQXZDMdPbn-1" source="oujagZjz_LBLydkSTlGg-49" target="oujagZjz_LBLydkSTlGg-12">
          <mxGeometry relative="1" as="geometry" />
        </mxCell>
        <mxCell id="oujagZjz_LBLydkSTlGg-49" value="5A" style="pointerEvents=1;verticalLabelPosition=middle;shadow=0;dashed=0;align=center;html=1;verticalAlign=middle;shape=mxgraph.electrical.miscellaneous.fuse_4;direction=south;aspect=fixed;strokeWidth=2;labelPosition=left;horizontal=0;fontStyle=1;strokeColor=#000000;" vertex="1" parent="P2Cyk1PLWHSQXZDMdPbn-1">
          <mxGeometry x="339.20000000000005" y="360" width="20.8" height="65" as="geometry" />
        </mxCell>
        <mxCell id="oujagZjz_LBLydkSTlGg-55" style="edgeStyle=orthogonalEdgeStyle;rounded=0;orthogonalLoop=1;jettySize=auto;html=1;exitX=1;exitY=0.5;exitDx=0;exitDy=0;exitPerimeter=0;entryX=0;entryY=0.5;entryDx=0;entryDy=0;entryPerimeter=0;strokeColor=#CCCC00;strokeWidth=2;endArrow=none;endFill=0;" edge="1" parent="P2Cyk1PLWHSQXZDMdPbn-1" source="oujagZjz_LBLydkSTlGg-50" target="V-Hg28DCed1BqYQspj9l-0">
          <mxGeometry relative="1" as="geometry" />
        </mxCell>
        <mxCell id="oujagZjz_LBLydkSTlGg-56" style="edgeStyle=orthogonalEdgeStyle;rounded=0;orthogonalLoop=1;jettySize=auto;html=1;exitX=1;exitY=0.5;exitDx=0;exitDy=0;exitPerimeter=0;entryX=0;entryY=0.5;entryDx=0;entryDy=0;entryPerimeter=0;strokeColor=#CCCC00;strokeWidth=2;endArrow=none;endFill=0;" edge="1" parent="P2Cyk1PLWHSQXZDMdPbn-1" source="oujagZjz_LBLydkSTlGg-50" target="oujagZjz_LBLydkSTlGg-5">
          <mxGeometry relative="1" as="geometry" />
        </mxCell>
        <mxCell id="oujagZjz_LBLydkSTlGg-57" style="edgeStyle=orthogonalEdgeStyle;rounded=0;orthogonalLoop=1;jettySize=auto;html=1;exitX=1;exitY=0.5;exitDx=0;exitDy=0;exitPerimeter=0;entryX=0;entryY=0.5;entryDx=0;entryDy=0;entryPerimeter=0;strokeColor=#CCCC00;strokeWidth=2;endArrow=none;endFill=0;" edge="1" parent="P2Cyk1PLWHSQXZDMdPbn-1" source="oujagZjz_LBLydkSTlGg-50" target="oujagZjz_LBLydkSTlGg-6">
          <mxGeometry relative="1" as="geometry" />
        </mxCell>
        <mxCell id="oujagZjz_LBLydkSTlGg-50" value="5A" style="pointerEvents=1;verticalLabelPosition=middle;shadow=0;dashed=0;align=center;html=1;verticalAlign=middle;shape=mxgraph.electrical.miscellaneous.fuse_4;direction=south;aspect=fixed;strokeWidth=2;labelPosition=left;horizontal=0;fontStyle=1;strokeColor=#000000;" vertex="1" parent="P2Cyk1PLWHSQXZDMdPbn-1">
          <mxGeometry x="472.6" y="360" width="20.8" height="65" as="geometry" />
        </mxCell>
        <mxCell id="oujagZjz_LBLydkSTlGg-63" style="edgeStyle=orthogonalEdgeStyle;rounded=0;orthogonalLoop=1;jettySize=auto;html=1;exitX=1;exitY=0.5;exitDx=0;exitDy=0;exitPerimeter=0;entryX=0;entryY=0.5;entryDx=0;entryDy=0;entryPerimeter=0;strokeWidth=2;strokeColor=#FF8000;endArrow=none;endFill=0;" edge="1" parent="P2Cyk1PLWHSQXZDMdPbn-1" source="oujagZjz_LBLydkSTlGg-51" target="b99abyGe5AANCG3WY1Ry-7">
          <mxGeometry relative="1" as="geometry" />
        </mxCell>
        <mxCell id="oujagZjz_LBLydkSTlGg-51" value="5A" style="pointerEvents=1;verticalLabelPosition=middle;shadow=0;dashed=0;align=center;html=1;verticalAlign=middle;shape=mxgraph.electrical.miscellaneous.fuse_4;direction=south;aspect=fixed;strokeWidth=2;labelPosition=left;horizontal=0;fontStyle=1;strokeColor=#000000;" vertex="1" parent="P2Cyk1PLWHSQXZDMdPbn-1">
          <mxGeometry x="69.60000000000005" y="360" width="20.8" height="65" as="geometry" />
        </mxCell>
      </root>
    </mxGraphModel>
  </diagram>
  <diagram id="528OK1x8M42Sve2IJFkw" name="I2C Bus Isolator">
    <mxGraphModel dx="1816" dy="1125" grid="1" gridSize="10" guides="1" tooltips="1" connect="1" arrows="1" fold="1" page="1" pageScale="1" pageWidth="1100" pageHeight="850" math="0" shadow="0">
      <root>
        <mxCell id="j6Ujre7c2IbfN_AWQBgP-0" />
        <mxCell id="j6Ujre7c2IbfN_AWQBgP-1" parent="j6Ujre7c2IbfN_AWQBgP-0" />
        <mxCell id="vHXrmh1ONiOsAJQtKGK9-10" style="edgeStyle=orthogonalEdgeStyle;rounded=0;orthogonalLoop=1;jettySize=auto;html=1;exitX=1;exitY=0.5;exitDx=0;exitDy=0;exitPerimeter=0;entryX=0;entryY=0.25;entryDx=0;entryDy=0;" parent="j6Ujre7c2IbfN_AWQBgP-1" source="vHXrmh1ONiOsAJQtKGK9-0" target="vHXrmh1ONiOsAJQtKGK9-5" edge="1">
          <mxGeometry relative="1" as="geometry" />
        </mxCell>
        <mxCell id="vHXrmh1ONiOsAJQtKGK9-0" value="VCC" style="html=1;shadow=0;dashed=0;align=center;verticalAlign=middle;shape=mxgraph.arrows2.arrow;dy=0;dx=10;notch=0;" parent="j6Ujre7c2IbfN_AWQBgP-1" vertex="1">
          <mxGeometry x="230" y="325" width="100" height="30" as="geometry" />
        </mxCell>
        <mxCell id="vHXrmh1ONiOsAJQtKGK9-11" style="edgeStyle=orthogonalEdgeStyle;rounded=0;orthogonalLoop=1;jettySize=auto;html=1;exitX=1;exitY=0.5;exitDx=0;exitDy=0;exitPerimeter=0;entryX=0;entryY=0.75;entryDx=0;entryDy=0;" parent="j6Ujre7c2IbfN_AWQBgP-1" source="vHXrmh1ONiOsAJQtKGK9-1" target="vHXrmh1ONiOsAJQtKGK9-5" edge="1">
          <mxGeometry relative="1" as="geometry">
            <mxPoint x="460" y="408" as="targetPoint" />
          </mxGeometry>
        </mxCell>
        <mxCell id="vHXrmh1ONiOsAJQtKGK9-1" value="GND" style="html=1;shadow=0;dashed=0;align=center;verticalAlign=middle;shape=mxgraph.arrows2.arrow;dy=0;dx=10;notch=0;" parent="j6Ujre7c2IbfN_AWQBgP-1" vertex="1">
          <mxGeometry x="230" y="375" width="100" height="30" as="geometry" />
        </mxCell>
        <mxCell id="vHXrmh1ONiOsAJQtKGK9-12" style="edgeStyle=orthogonalEdgeStyle;rounded=0;orthogonalLoop=1;jettySize=auto;html=1;exitX=1;exitY=0.5;exitDx=0;exitDy=0;exitPerimeter=0;entryX=0;entryY=0.25;entryDx=0;entryDy=0;" parent="j6Ujre7c2IbfN_AWQBgP-1" source="vHXrmh1ONiOsAJQtKGK9-2" target="vHXrmh1ONiOsAJQtKGK9-4" edge="1">
          <mxGeometry relative="1" as="geometry" />
        </mxCell>
        <mxCell id="vHXrmh1ONiOsAJQtKGK9-2" value="SDA" style="html=1;shadow=0;dashed=0;align=center;verticalAlign=middle;shape=mxgraph.arrows2.arrow;dy=0;dx=10;notch=0;" parent="j6Ujre7c2IbfN_AWQBgP-1" vertex="1">
          <mxGeometry x="230" y="433" width="100" height="30" as="geometry" />
        </mxCell>
        <mxCell id="vHXrmh1ONiOsAJQtKGK9-13" style="edgeStyle=orthogonalEdgeStyle;rounded=0;orthogonalLoop=1;jettySize=auto;html=1;exitX=1;exitY=0.5;exitDx=0;exitDy=0;exitPerimeter=0;entryX=0;entryY=0.75;entryDx=0;entryDy=0;" parent="j6Ujre7c2IbfN_AWQBgP-1" source="vHXrmh1ONiOsAJQtKGK9-3" target="vHXrmh1ONiOsAJQtKGK9-4" edge="1">
          <mxGeometry relative="1" as="geometry" />
        </mxCell>
        <mxCell id="vHXrmh1ONiOsAJQtKGK9-3" value="SCL" style="html=1;shadow=0;dashed=0;align=center;verticalAlign=middle;shape=mxgraph.arrows2.arrow;dy=0;dx=10;notch=0;" parent="j6Ujre7c2IbfN_AWQBgP-1" vertex="1">
          <mxGeometry x="230" y="483" width="100" height="30" as="geometry" />
        </mxCell>
        <mxCell id="v-aq0sDeYm6-nWQ6MGNJ-30" style="edgeStyle=orthogonalEdgeStyle;rounded=0;orthogonalLoop=1;jettySize=auto;html=1;exitX=1;exitY=0.75;exitDx=0;exitDy=0;entryX=0;entryY=0.75;entryDx=0;entryDy=0;" parent="j6Ujre7c2IbfN_AWQBgP-1" source="vHXrmh1ONiOsAJQtKGK9-4" target="vHXrmh1ONiOsAJQtKGK9-16" edge="1">
          <mxGeometry relative="1" as="geometry">
            <Array as="points">
              <mxPoint x="710" y="488" />
              <mxPoint x="710" y="461" />
            </Array>
          </mxGeometry>
        </mxCell>
        <mxCell id="v-aq0sDeYm6-nWQ6MGNJ-33" value="SCL - ISOLATED" style="edgeLabel;html=1;align=center;verticalAlign=middle;resizable=0;points=[];" parent="v-aq0sDeYm6-nWQ6MGNJ-30" vertex="1" connectable="0">
          <mxGeometry x="-0.038" y="3" relative="1" as="geometry">
            <mxPoint x="-45" y="-5" as="offset" />
          </mxGeometry>
        </mxCell>
        <mxCell id="v-aq0sDeYm6-nWQ6MGNJ-31" style="edgeStyle=orthogonalEdgeStyle;rounded=0;orthogonalLoop=1;jettySize=auto;html=1;exitX=1;exitY=0.25;exitDx=0;exitDy=0;entryX=0;entryY=0.5;entryDx=0;entryDy=0;" parent="j6Ujre7c2IbfN_AWQBgP-1" source="vHXrmh1ONiOsAJQtKGK9-4" target="vHXrmh1ONiOsAJQtKGK9-16" edge="1">
          <mxGeometry relative="1" as="geometry">
            <Array as="points">
              <mxPoint x="700" y="458" />
              <mxPoint x="700" y="413" />
            </Array>
          </mxGeometry>
        </mxCell>
        <mxCell id="v-aq0sDeYm6-nWQ6MGNJ-32" value="SDA - ISOLATED" style="edgeLabel;html=1;align=center;verticalAlign=middle;resizable=0;points=[];" parent="v-aq0sDeYm6-nWQ6MGNJ-31" vertex="1" connectable="0">
          <mxGeometry x="-0.8419" y="-1" relative="1" as="geometry">
            <mxPoint x="33" y="-10" as="offset" />
          </mxGeometry>
        </mxCell>
        <mxCell id="vHXrmh1ONiOsAJQtKGK9-4" value="I2C ISOLATOR" style="rounded=0;whiteSpace=wrap;html=1;" parent="j6Ujre7c2IbfN_AWQBgP-1" vertex="1">
          <mxGeometry x="460" y="443" width="120" height="60" as="geometry" />
        </mxCell>
        <mxCell id="v-aq0sDeYm6-nWQ6MGNJ-28" style="edgeStyle=orthogonalEdgeStyle;rounded=0;orthogonalLoop=1;jettySize=auto;html=1;exitX=1;exitY=0.5;exitDx=0;exitDy=0;entryX=0;entryY=0.25;entryDx=0;entryDy=0;" parent="j6Ujre7c2IbfN_AWQBgP-1" source="vHXrmh1ONiOsAJQtKGK9-5" target="vHXrmh1ONiOsAJQtKGK9-16" edge="1">
          <mxGeometry relative="1" as="geometry" />
        </mxCell>
        <mxCell id="v-aq0sDeYm6-nWQ6MGNJ-29" value="VCC &amp;amp; GND - ISOLATED" style="edgeLabel;html=1;align=center;verticalAlign=middle;resizable=0;points=[];" parent="v-aq0sDeYm6-nWQ6MGNJ-28" vertex="1" connectable="0">
          <mxGeometry x="-0.7771" y="-1" relative="1" as="geometry">
            <mxPoint x="51" y="-11" as="offset" />
          </mxGeometry>
        </mxCell>
        <mxCell id="vHXrmh1ONiOsAJQtKGK9-5" value="ISOLATED&lt;br&gt;DC-DC" style="rounded=0;whiteSpace=wrap;html=1;" parent="j6Ujre7c2IbfN_AWQBgP-1" vertex="1">
          <mxGeometry x="460" y="335" width="120" height="60" as="geometry" />
        </mxCell>
        <mxCell id="vHXrmh1ONiOsAJQtKGK9-16" value="Atlas Scientific EZO Board" style="rounded=0;whiteSpace=wrap;html=1;" parent="j6Ujre7c2IbfN_AWQBgP-1" vertex="1">
          <mxGeometry x="750" y="318" width="120" height="190" as="geometry" />
        </mxCell>
        <mxCell id="v-aq0sDeYm6-nWQ6MGNJ-0" value="" style="endArrow=none;dashed=1;html=1;exitX=0.5;exitY=0;exitDx=0;exitDy=0;jumpStyle=none;jumpSize=19;rounded=0;strokeWidth=3;" parent="j6Ujre7c2IbfN_AWQBgP-1" source="vHXrmh1ONiOsAJQtKGK9-5" edge="1">
          <mxGeometry width="50" height="50" relative="1" as="geometry">
            <mxPoint x="550" y="665" as="sourcePoint" />
            <mxPoint x="520" y="245" as="targetPoint" />
          </mxGeometry>
        </mxCell>
        <mxCell id="v-aq0sDeYm6-nWQ6MGNJ-35" value="ISOLATED" style="edgeLabel;html=1;align=center;verticalAlign=middle;resizable=0;points=[];rotation=270;" parent="v-aq0sDeYm6-nWQ6MGNJ-0" vertex="1" connectable="0">
          <mxGeometry x="-0.4667" y="3" relative="1" as="geometry">
            <mxPoint x="13" y="-16" as="offset" />
          </mxGeometry>
        </mxCell>
        <mxCell id="v-aq0sDeYm6-nWQ6MGNJ-1" value="" style="endArrow=none;dashed=1;html=1;exitX=0.5;exitY=0;exitDx=0;exitDy=0;entryX=0.5;entryY=1;entryDx=0;entryDy=0;strokeWidth=3;" parent="j6Ujre7c2IbfN_AWQBgP-1" source="vHXrmh1ONiOsAJQtKGK9-4" target="vHXrmh1ONiOsAJQtKGK9-5" edge="1">
          <mxGeometry width="50" height="50" relative="1" as="geometry">
            <mxPoint x="530" y="345" as="sourcePoint" />
            <mxPoint x="510" y="405" as="targetPoint" />
          </mxGeometry>
        </mxCell>
        <mxCell id="v-aq0sDeYm6-nWQ6MGNJ-2" value="" style="endArrow=none;dashed=1;html=1;strokeWidth=3;" parent="j6Ujre7c2IbfN_AWQBgP-1" target="vHXrmh1ONiOsAJQtKGK9-4" edge="1">
          <mxGeometry width="50" height="50" relative="1" as="geometry">
            <mxPoint x="520" y="605" as="sourcePoint" />
            <mxPoint x="490" y="525" as="targetPoint" />
          </mxGeometry>
        </mxCell>
        <mxCell id="v-aq0sDeYm6-nWQ6MGNJ-36" value="ISOLATED" style="edgeLabel;html=1;align=center;verticalAlign=middle;resizable=0;points=[];rotation=270;" parent="j6Ujre7c2IbfN_AWQBgP-1" vertex="1" connectable="0">
          <mxGeometry x="530" y="555" as="geometry" />
        </mxCell>
      </root>
    </mxGraphModel>
  </diagram>
  <diagram id="i42l0F-NNEYSdDpTezNk" name="PWM">
    <mxGraphModel dx="1544" dy="956" grid="1" gridSize="10" guides="1" tooltips="1" connect="1" arrows="1" fold="1" page="1" pageScale="1" pageWidth="1100" pageHeight="850" math="0" shadow="0">
      <root>
        <mxCell id="14cv0IyoSiKL_7TLvn1z-0" />
        <mxCell id="14cv0IyoSiKL_7TLvn1z-1" parent="14cv0IyoSiKL_7TLvn1z-0" />
        <mxCell id="cbnBdcW9qll6Wst_5wnb-0" style="edgeStyle=orthogonalEdgeStyle;rounded=0;orthogonalLoop=1;jettySize=auto;html=1;exitX=1;exitY=0.5;exitDx=0;exitDy=0;exitPerimeter=0;entryX=0;entryY=0.25;entryDx=0;entryDy=0;" parent="14cv0IyoSiKL_7TLvn1z-1" source="cbnBdcW9qll6Wst_5wnb-1" target="cbnBdcW9qll6Wst_5wnb-5" edge="1">
          <mxGeometry relative="1" as="geometry" />
        </mxCell>
        <mxCell id="cbnBdcW9qll6Wst_5wnb-1" value="VIN (12-24V)" style="html=1;shadow=0;dashed=0;align=center;verticalAlign=middle;shape=mxgraph.arrows2.arrow;dy=0;dx=10;notch=0;" parent="14cv0IyoSiKL_7TLvn1z-1" vertex="1">
          <mxGeometry x="328" y="378" width="100" height="30" as="geometry" />
        </mxCell>
        <mxCell id="cbnBdcW9qll6Wst_5wnb-2" style="edgeStyle=orthogonalEdgeStyle;rounded=0;orthogonalLoop=1;jettySize=auto;html=1;exitX=1;exitY=0.25;exitDx=0;exitDy=0;entryX=0;entryY=0.5;entryDx=0;entryDy=0;entryPerimeter=0;" parent="14cv0IyoSiKL_7TLvn1z-1" source="cbnBdcW9qll6Wst_5wnb-5" target="cbnBdcW9qll6Wst_5wnb-6" edge="1">
          <mxGeometry relative="1" as="geometry" />
        </mxCell>
        <mxCell id="cbnBdcW9qll6Wst_5wnb-14" style="edgeStyle=orthogonalEdgeStyle;rounded=0;jumpStyle=none;jumpSize=19;orthogonalLoop=1;jettySize=auto;html=1;exitX=1;exitY=0.75;exitDx=0;exitDy=0;entryX=0;entryY=0.5;entryDx=0;entryDy=0;entryPerimeter=0;strokeWidth=1;" parent="14cv0IyoSiKL_7TLvn1z-1" source="cbnBdcW9qll6Wst_5wnb-5" target="cbnBdcW9qll6Wst_5wnb-9" edge="1">
          <mxGeometry relative="1" as="geometry" />
        </mxCell>
        <mxCell id="cbnBdcW9qll6Wst_5wnb-5" value="RGB PWM LED Driver" style="rounded=0;whiteSpace=wrap;html=1;" parent="14cv0IyoSiKL_7TLvn1z-1" vertex="1">
          <mxGeometry x="463" y="360" width="120" height="130" as="geometry" />
        </mxCell>
        <mxCell id="cbnBdcW9qll6Wst_5wnb-6" value="LED Channel 1" style="html=1;shadow=0;dashed=0;align=center;verticalAlign=middle;shape=mxgraph.arrows2.arrow;dy=0;dx=10;notch=0;" parent="14cv0IyoSiKL_7TLvn1z-1" vertex="1">
          <mxGeometry x="628" y="378" width="145" height="30" as="geometry" />
        </mxCell>
        <mxCell id="cbnBdcW9qll6Wst_5wnb-9" value="LED Channel 2" style="html=1;shadow=0;dashed=0;align=center;verticalAlign=middle;shape=mxgraph.arrows2.arrow;dy=0;dx=10;notch=0;" parent="14cv0IyoSiKL_7TLvn1z-1" vertex="1">
          <mxGeometry x="628" y="442" width="145" height="30" as="geometry" />
        </mxCell>
        <mxCell id="cbnBdcW9qll6Wst_5wnb-12" style="edgeStyle=orthogonalEdgeStyle;rounded=0;jumpStyle=none;jumpSize=19;orthogonalLoop=1;jettySize=auto;html=1;exitX=1;exitY=0.5;exitDx=0;exitDy=0;exitPerimeter=0;entryX=0;entryY=0.75;entryDx=0;entryDy=0;strokeWidth=1;" parent="14cv0IyoSiKL_7TLvn1z-1" source="cbnBdcW9qll6Wst_5wnb-11" target="cbnBdcW9qll6Wst_5wnb-5" edge="1">
          <mxGeometry relative="1" as="geometry" />
        </mxCell>
        <mxCell id="cbnBdcW9qll6Wst_5wnb-11" value="Microcontroller" style="html=1;shadow=0;dashed=0;align=center;verticalAlign=middle;shape=mxgraph.arrows2.arrow;dy=0;dx=10;notch=0;" parent="14cv0IyoSiKL_7TLvn1z-1" vertex="1">
          <mxGeometry x="328" y="442" width="100" height="30" as="geometry" />
        </mxCell>
      </root>
    </mxGraphModel>
  </diagram>
</mxfile>
